<?xml version="1.0" encoding="UTF-8"?>
<!DOCTYPE svg PUBLIC "-//W3C//DTD SVG 1.1//EN" "http://www.w3.org/Graphics/SVG/1.1/DTD/svg11.dtd">
<!-- Creator: CorelDRAW 2021 (64-Bit) -->
<svg xmlns="http://www.w3.org/2000/svg" xml:space="preserve" width="254.677mm" height="254.677mm" version="1.1" style="shape-rendering:geometricPrecision; text-rendering:geometricPrecision; image-rendering:optimizeQuality; fill-rule:evenodd; clip-rule:evenodd"
viewBox="0 0 25467.72 25467.72"
 xmlns:xlink="http://www.w3.org/1999/xlink"
 xmlns:xodm="http://www.corel.com/coreldraw/odm/2003">
 <defs>
  <style type="text/css">
   <![CDATA[
    .fil0 {fill:url(#id0)}
   ]]>
  </style>
  <linearGradient id="id0" gradientUnits="userSpaceOnUse" x1="7766" y1="3558.45" x2="17701.73" y2="21909.28">
   <stop offset="0" style="stop-opacity:1; stop-color:#98081F"/>
   <stop offset="1" style="stop-opacity:1; stop-color:#FF5466"/>
  </linearGradient>
 </defs>
 <g id="Layer_x0020_1">
  <metadata id="CorelCorpID_0Corel-Layer"/>
  <path class="fil0" d="M5603.62 14018.52c215.86,909.23 202.32,1180.67 658.96,2092.88 275.4,550.13 452.2,819.57 801.88,1278.24 108.3,142.06 222.18,254.79 328.04,392.19 185.31,240.58 384.03,403.6 606.67,587.07 331.66,273.3 461.52,430.18 912.94,692.23 265.12,153.92 578.57,339.23 913.71,473.59 342.75,137.37 687.99,278.44 1052.86,357.23l4.35 2088.53c72.31,60.14 130.67,123.46 200.17,174.44 137.99,101.24 462.53,466.98 596.79,500.21 139.96,225.82 143.13,165.57 234.78,248.69 137.31,124.47 -34.38,8.08 253.01,217.3 84.67,61.59 83.94,108.09 157.76,172.78 150.92,132.23 3.67,-39.43 250.59,220.03 42.84,44.99 40.29,37.73 93.69,74.18 302,206.22 120.26,183.97 387.31,307.79 -26.9,59.86 -20.52,11.16 33.12,42.77l-7.08 -3786.73 181.9 -28.34c726.82,-50.24 1548.97,-221.57 2217.96,-505.83l130.99 -83.8c158.08,-0.17 700.56,-330.99 843.94,-414.57 385.84,-224.84 593.66,-408.84 910.68,-667.18 84.3,-68.66 100.88,-66.93 178.37,-155.7l769.48 -810.87c55.23,-75.16 96.33,-109.62 149.93,-180.89 670.92,-892.51 1333.94,-2210.94 1427.93,-3691.11 150.25,-782.76 -70.86,-2253.86 -366.02,-3032.19 -181.3,-478.15 -327.28,-792.54 -550.82,-1195.29 -124.14,-223.66 -486.12,-786.47 -676.08,-986.89 -3.5,-3.71 -9.49,-9.89 -12.93,-13.28l-40.79 -35.35 -11.89 -6022.03c-74.21,-25.52 -550.72,275.47 -661.97,341.44 -99.1,58.77 -595.76,335.07 -637.64,392.02 -154.85,52.67 -278.18,162.36 -424.55,212.37l-1.27 5690.25c-68.62,-56.19 -89.53,-83.65 -161.1,-140.35l-563.84 -432.79c-265.51,-174.16 -833,-440.88 -854.81,-457.6 -51.94,-1087.8 13.6,-2796.64 0.88,-4045.77 -1.02,-99.97 15.12,-179.94 -28.57,-239.01 -24.02,-67.93 10.35,1.34 -27.74,-55.55l-1656.76 -1527.38c-78.6,-79.9 -40.54,-61.29 -146.86,-101.2l16.92 9930.88c73.4,124.05 321.11,335.21 449.64,435.14 91.88,71.44 115.58,127.65 215.58,199.08 168.53,120.43 1045.62,985.55 1174.9,1031.5l-6.08 -3515.18c148.23,74.16 232.6,155.8 344.8,275.98 343.65,368.07 559.98,562.58 811.4,1126.25 520.57,1167.27 227.94,1899.6 258.15,2256.89 -70,80.93 -136.82,426.54 -190.94,560.71 -68.2,168.92 -172.79,384.16 -254.39,521.37l-476.97 657.5c-220.35,261.7 -762.04,646.86 -1096.93,812.3 -371.08,183.32 -783.31,269.81 -1230.01,330.37l0.58 -1921.84c-19.46,-130.99 -95.8,-136.84 -176.14,-216.49 -88.03,-87.27 -107.53,-112.33 -201.93,-184.85 -91.06,-70 -118.52,-119.02 -196.31,-189.72l-1216.66 -1085.23c-111.42,-89.88 -312.34,-308.51 -435.89,-349.5l19.76 3479.27c-152.85,-75.78 -279.69,-174.7 -392.55,-270.9 -363.48,-309.87 -679.28,-611.46 -917.35,-1046.05 -163.09,-297.79 -291.98,-552.63 -386.84,-912.15 -73.69,-279.42 -171.89,-875.76 -116.85,-1163.59 62.07,-1045.36 454.71,-1582.47 922.02,-2210.77 183.68,-246.93 683.68,-612.32 962.61,-779.76 150.85,-90.57 337.8,-130.79 479.09,-215.02l5.72 -6308.8c-238.9,-157.66 -420.87,-432.28 -678.7,-570 -7.29,-71.04 -170.12,-180.93 -273,-281.35 -113.32,-110.61 -828.87,-780.64 -958.39,-832.04l12.5 6926.19 -7.82 62.19c-139.98,44.38 -370.22,252.53 -482.76,340.36 -212.59,165.94 -627.61,653.63 -793.18,896.89l-310.38 521.08 -7.56 -4739.45c-160.64,50.77 -985.97,816 -1214.54,995.49 -225.53,177.15 -964.73,892.9 -1185.55,1025.03 -28.83,1559.08 0.76,3276.44 1.97,4865.34 0.46,579.33 20.62,1039.25 64.11,1596.35z"/>
 </g>
</svg>
